<?xml version="1.0" encoding="UTF-8"?><svg id="Camada_2" xmlns="http://www.w3.org/2000/svg" xmlns:xlink="http://www.w3.org/1999/xlink" viewBox="0 0 809.49 808.94"><defs><style>.cls-1{fill:#5ddac3;}.cls-2{fill:url(#Gradiente_sem_nome_7);stroke:#51379b;stroke-linecap:square;stroke-miterlimit:10;stroke-width:24px;}.cls-3{fill:none;}.cls-4{fill:#51379b;}</style><linearGradient id="Gradiente_sem_nome_7" x1="30.89" y1="579.29" x2="472.47" y2="240.92" gradientUnits="userSpaceOnUse"><stop offset="0" stop-color="#5ddac3"/><stop offset="1" stop-color="#9466fa"/></linearGradient></defs><g id="Camada_2-2"><g><rect class="cls-3" width="808.94" height="808.94"/><g><g><polygon class="cls-1" points="45.16 618.18 145.89 517.45 63.17 517.45 63.17 193.45 187.17 193.45 187.17 335.29 328.86 193.59 780.55 193.59 656.73 317.59 499.08 317.59 464.63 352.04 623.04 352.04 499.04 476.04 340.63 476.04 198.49 618.18 45.16 618.18"/><path class="cls-4" d="M175.17,205.45v158.81l158.67-158.67h417.77l-99.86,100h-157.64l-58.45,58.45h158.4l-100,100h-158.4l-142.14,142.14H74.13l100.73-100.73H75.17V205.45h100m576.44,.14h0m-552.45-24.14H51.17v348H116.92l-59.76,59.76-40.97,40.97H203.47l7.03-7.03,135.11-135.11h158.4l7.03-7.03,100-100,40.97-40.97h-158.4l10.45-10.45h157.65l7.03-7.04,99.86-100,40.9-40.96H323.89l-7.03,7.03-117.7,117.7v-124.87h0Z"/></g><line class="cls-2" x1="57.33" y1="606.18" x2="460.74" y2="202.76"/></g></g></g></svg>